<svg width="28" height="28" viewBox="0 0 28 28" fill="none" xmlns="http://www.w3.org/2000/svg">
<path fill-rule="evenodd" clip-rule="evenodd" d="M1.16669 14C1.16669 6.91217 6.91219 1.16667 14 1.16667C21.0879 1.16667 26.8334 6.91217 26.8334 14C26.8334 21.0878 21.0879 26.8333 14 26.8333C6.91219 26.8333 1.16669 21.0878 1.16669 14ZM14 3.5C8.20085 3.5 3.50002 8.20083 3.50002 14C3.50002 19.7992 8.20085 24.5 14 24.5C19.7992 24.5 24.5 19.7992 24.5 14C24.5 8.20083 19.7992 3.5 14 3.5Z" fill="#DCF5FF"/>
<path fill-rule="evenodd" clip-rule="evenodd" d="M18.3249 10.8417C18.7805 11.2973 18.7805 12.036 18.3249 12.4916L13.6583 17.1583C13.2027 17.6139 12.464 17.6139 12.0084 17.1583L9.67502 14.825C9.21941 14.3693 9.21941 13.6307 9.67502 13.175C10.1306 12.7194 10.8693 12.7194 11.3249 13.175L12.8333 14.6834L16.675 10.8417C17.1306 10.3861 17.8693 10.3861 18.3249 10.8417Z" fill="#DCF5FF"/>
</svg>
