<svg width="28" height="28" viewBox="0 0 28 28" fill="none" xmlns="http://www.w3.org/2000/svg">
<path d="M18.6667 15.1667H9.33335C8.69169 15.1667 8.16669 14.6417 8.16669 14C8.16669 13.3583 8.69169 12.8333 9.33335 12.8333H18.6667C19.3084 12.8333 19.8334 13.3583 19.8334 14C19.8334 14.6417 19.3084 15.1667 18.6667 15.1667Z" fill="#DCF5FF"/>
<path d="M14 19.8333C13.8483 19.8333 13.6966 19.81 13.5566 19.7517C13.4166 19.6933 13.2883 19.6 13.1716 19.495C13.0666 19.39 12.985 19.2617 12.9266 19.1217C12.8683 18.97 12.8333 18.83 12.8333 18.6667C12.8333 18.515 12.8683 18.3633 12.9266 18.2233C12.985 18.0833 13.0666 17.955 13.1716 17.85C13.2883 17.7333 13.4166 17.6517 13.5566 17.5933C13.9883 17.4183 14.5016 17.5233 14.8283 17.85C15.0383 18.06 15.1666 18.3633 15.1666 18.6667C15.1666 18.8183 15.1433 18.97 15.0733 19.1217C15.015 19.2617 14.9333 19.39 14.8283 19.495C14.6066 19.7167 14.3033 19.8333 14 19.8333Z" fill="#DCF5FF"/>
<path d="M14 10.5C13.6966 10.5 13.3933 10.3833 13.1716 10.1617C12.9616 9.94 12.8333 9.64833 12.8333 9.33333C12.8333 9.18167 12.8683 9.03 12.9266 8.89C12.985 8.75 13.0666 8.62167 13.1716 8.51667C13.4516 8.23667 13.8483 8.12 14.2333 8.19C14.3033 8.21333 14.3733 8.23667 14.4433 8.26C14.5133 8.295 14.5833 8.33 14.6533 8.365C14.7116 8.41167 14.77 8.45833 14.8283 8.51667C15.0383 8.72667 15.1666 9.03 15.1666 9.33333C15.1666 9.64833 15.0383 9.94 14.8283 10.1617C14.77 10.22 14.7116 10.2667 14.6533 10.3017C14.5833 10.3483 14.5133 10.3833 14.4433 10.4183C14.3733 10.4417 14.3033 10.465 14.2333 10.4767C14.1516 10.5 14.0816 10.5 14 10.5Z" fill="#DCF5FF"/>
<path d="M14 26.8333C6.91835 26.8333 1.16669 21.0817 1.16669 14C1.16669 6.91833 6.91835 1.16667 14 1.16667C21.0817 1.16667 26.8334 6.91833 26.8334 14C26.8334 21.0817 21.0817 26.8333 14 26.8333ZM14 3.5C8.21335 3.5 3.50002 8.21334 3.50002 14C3.50002 19.7867 8.21335 24.5 14 24.5C19.7867 24.5 24.5 19.7867 24.5 14C24.5 8.21334 19.7867 3.5 14 3.5Z" fill="#DCF5FF"/>
</svg>
