<svg version="1.2" xmlns="http://www.w3.org/2000/svg" viewBox="0 0 30 30" width="30" height="30">
	<title>kocum-yanimda-svg</title>
	<defs>
		<radialGradient id="g1" cx="0" cy="0" r="1" gradientUnits="userSpaceOnUse" gradientTransform="matrix(19.558,0,0,19.558,7.592,4.051)">
			<stop offset="0" stop-color="#6db1de"/>
			<stop offset="1" stop-color="#2073aa"/>
		</radialGradient>
		<filter x="-50%" y="-50%" width="200%" height="200%" id="f1"> <feGaussianBlur stdDeviation="40"/> </filter>
	</defs>
	<style>
		.s0 { fill: url(#g1) } 
		.s1 { filter: url(#f1);fill: #0d4970 } 
		.s2 { mix-blend-mode: overlay;fill: #ffffff } 
		.s3 { fill: #1f6a9c } 
		.s4 { fill: #f0f0f0 } 
	</style>
	<g>
		<path class="s0" d="m9 0h12c5 0 9 4 9 9v12c0 5-4 9-9 9h-12c-5 0-9-4-9-9v-12c0-5 4-9 9-9z"/>
	</g>
	<g style="opacity: .5">
		<path class="s1" d="m15 27c-3.3 0-6-2.7-6-6 0-3.3 2.7-6 6-6 3.3 0 6 2.7 6 6 0 3.3-2.7 6-6 6z"/>
	</g>
	<g style="opacity: .1">
		<path class="s2" d="m0 9c0-5 4-9 9-9h12c5 0 9 4 9 9v12c0 5-4 9-9 9h-12c-5 0-9-4-9-9z"/>
	</g>
	<path fill-rule="evenodd" class="s3" d="m24.5 16.4l-1.6 1.2v1.4l1.1 0.8c0.2 0.1 0.2 0.3 0 0.4l-1.1 0.8v0.5c0 0.2-0.1 0.3-0.2 0.3h-0.1c-0.1 0-0.3-0.1-0.3-0.3v-0.4l-1.1-0.9c-0.1-0.1-0.1-0.3 0-0.4l1.1-0.9v-0.9l-6.7 5.1c-0.4 0.3-0.9 0.3-1.3 0l-8.9-6.7c-0.6-0.5-0.6-1.3 0-1.7l8.9-6.8c0.4-0.2 0.9-0.2 1.3 0l8.9 6.8c0.6 0.4 0.6 1.2 0 1.7zm-5.9-1.4l-3.2-2.4c-0.2-0.2-0.6-0.2-0.9 0l-3.2 2.4c-0.3 0.3-0.3 0.8 0 1.1l1.7 1.3c0.1 0 0.1 0.2 0.1 0.3l-0.4 0.9c-0.1 0.2 0 0.2 0.1 0.2l1.2-0.6q0.1 0 0.2 0.1l0.3 0.2c0.3 0.2 0.6 0.2 0.9 0l3.2-2.4c0.4-0.3 0.4-0.8 0-1.1zm4.3 5.4l0.5-0.3c0 0 0-0.1 0-0.2l-0.5-0.3-0.2-0.2q-0.1 0-0.2 0l-0.2 0.2-0.4 0.3c-0.1 0.1-0.1 0.2 0 0.2l0.4 0.4 0.2 0.1q0.1 0.1 0.2 0z"/>
	<path fill-rule="evenodd" class="s4" d="m24.5 15.4l-1.6 1.2v2l1.1 0.8c0.2 0.1 0.2 0.3 0 0.4l-1.1 0.9v0.5c0 0.1-0.1 0.2-0.2 0.2h-0.1c-0.1 0-0.3-0.1-0.3-0.2v-0.5l-1.1-0.9c-0.1-0.1-0.1-0.3 0-0.4l1.1-0.9v-1.4l-6.7 5c-0.4 0.3-0.9 0.3-1.3 0l-8.9-6.7c-0.6-0.4-0.6-1.3 0-1.7l8.9-6.7c0.4-0.3 0.9-0.3 1.3 0l8.9 6.7c0.6 0.4 0.6 1.3 0 1.7zm-5.9-1.4l-3.2-2.4c-0.2-0.2-0.6-0.2-0.9 0l-3.2 2.4c-0.3 0.3-0.3 0.8 0 1.1l1.7 1.3c0.1 0.1 0.1 0.2 0.1 0.3l-0.4 0.9c-0.1 0.2 0 0.3 0.1 0.2l1.2-0.5q0.1-0.1 0.2 0l0.3 0.3c0.3 0.1 0.6 0.1 0.9 0l3.2-2.5c0.4-0.2 0.4-0.8 0-1.1zm4.3 6l0.5-0.3c0 0 0-0.1 0-0.2l-0.5-0.3-0.2-0.2q-0.1 0-0.2 0l-0.2 0.2-0.4 0.3c-0.1 0.1-0.1 0.2 0 0.2l0.4 0.4 0.2 0.1q0.1 0.1 0.2 0z"/>
</svg>