<svg width="28" height="28" viewBox="0 0 28 28" fill="none" xmlns="http://www.w3.org/2000/svg">
<path fill-rule="evenodd" clip-rule="evenodd" d="M14 3.5C8.20103 3.5 3.50002 8.20101 3.50002 14C3.50002 19.799 8.20103 24.5 14 24.5C19.799 24.5 24.5 19.799 24.5 14C24.5 8.20101 19.799 3.5 14 3.5ZM1.16669 14C1.16669 6.91235 6.91237 1.16667 14 1.16667C21.0877 1.16667 26.8334 6.91235 26.8334 14C26.8334 21.0877 21.0877 26.8333 14 26.8333C6.91237 26.8333 1.16669 21.0877 1.16669 14Z" fill="#DCF5FF"/>
<path fill-rule="evenodd" clip-rule="evenodd" d="M8.16669 14C8.16669 13.3557 8.68902 12.8333 9.33335 12.8333H18.6667C19.311 12.8333 19.8334 13.3557 19.8334 14C19.8334 14.6443 19.311 15.1667 18.6667 15.1667H9.33335C8.68902 15.1667 8.16669 14.6443 8.16669 14Z" fill="#DCF5FF"/>
</svg>
