<svg version="1.2" xmlns="http://www.w3.org/2000/svg" viewBox="0 0 30 30" width="30" height="30">
	<title>simdi-anladim-svg</title>
	<style>
		.s0 { fill: #2c2c60 } 
		.s1 { fill: #ff6175 } 
		.s2 { fill: #21ddb9 } 
	</style>
	<g>
		<path class="s0" d="m21 0h-12c-5 0-9 4-9 9v12c0 5 4 9 9 9h12c5 0 9-4 9-9v-12c0-5-4-9-9-9z"/>
	</g>
	<path class="s1" d="m22.6 10.2c-1.1 0.6-1.5 0.7-2.6 1.3-0.5 0.3-0.8 0-0.4-0.5 0.8-1 1.6-1.6 2.5-2 0.4-0.2 0.9 0.1 0.9 0.6 0 0.3-0.2 0.5-0.4 0.6z"/>
	<path class="s1" d="m19 9.6c-0.2 0.5-0.6 0.4-0.6-0.1 0-1.3 0.3-2.3 0.7-3.1 0.2-0.5 0.8-0.5 1.1-0.2 0.2 0.2 0.2 0.5 0.1 0.7-0.5 1.2-0.9 1.5-1.3 2.7z"/>
	<path class="s1" d="m16.7 10.1c-0.9-0.8-1.4-1.7-1.7-2.6-0.2-0.5 0.1-1 0.6-0.9 0.3 0 0.5 0.2 0.6 0.4 0.5 1.2 0.5 1.6 1 2.8 0.3 0.5-0.1 0.7-0.5 0.3z"/>
	<path class="s2" d="m7.7 20.2c0.1 0 0.1-0.1 0.1-0.2-0.4-1-0.7-1.8-0.3-2.2 0.4-0.4 1.1-0.4 1.6-0.3 0.2 0 0.3-0.1 0.3-0.3-0.2-0.8-0.2-1.4 0.2-1.8 0.3-0.3 1.3-0.1 1.9 0.1 0.2 0 0.3-0.2 0.2-0.3-4.1-5.6-5-6.2-4.9-6.8 0.4-1.9 6.9 3.4 7.5 3.9 2.9 2.5 4.6 4.5 4.6 4.5l0.3-0.5q0.4-0.4 0.8-0.8c0.7-0.7 1.3-1.2 1.4-1.3 0.4-0.2 0.8-0.2 1.1 0 0.2 0.1 0.4 0.4 0.5 0.6 0.1 0.4-0.1 0.8-0.4 1.1l-0.4 0.2c-0.6 0.5-1.9 1.8-2.4 3.4-0.1 0.4-0.4 0.7-0.9 0.7q0 0-0.1 0c-0.4 0-0.8-0.3-0.9-0.7-1.4-3-5.8-8.4-8.8-10.4-1.9-1.2-1.7-0.4-1.4 0 0.3 0.4 1.4 1.2 5.6 6.7 0.1 0.1 0.1 0.3 0 0.5-0.1 0.2-0.4 0.2-0.5 0.1-0.7-0.3-1.7-0.6-2.1-0.3-0.1 0.1-0.4 0.5 0.1 1.9q0.1 0.2 0 0.3c-0.1 0.2-0.4 0.3-0.6 0.2-0.4-0.2-1.2-0.3-1.5-0.1-0.1 0.1-0.3 0.5 0.3 1.9q0.1 0.2-0.1 0.4-0.1 0.2-0.3 0.2c-0.2 0-0.8 0.1-0.9 0.5-0.1 0.3 0 0.8 1.5 1.9 0.6 0.4 0 0.9-0.6 0.6-1.1-0.7-2.2-2.4-2-3.1 0.3-0.4 0.7-0.5 1.1-0.6z"/>
</svg>