<svg width="28" height="28" viewBox="0 0 28 28" fill="none" xmlns="http://www.w3.org/2000/svg">
<path fill-rule="evenodd" clip-rule="evenodd" d="M14 3.5C8.20103 3.5 3.50002 8.20101 3.50002 14C3.50002 19.799 8.20103 24.5 14 24.5C19.799 24.5 24.5 19.799 24.5 14C24.5 8.20101 19.799 3.5 14 3.5ZM1.16669 14C1.16669 6.91235 6.91237 1.16667 14 1.16667C21.0877 1.16667 26.8334 6.91235 26.8334 14C26.8334 21.0877 21.0877 26.8333 14 26.8333C6.91237 26.8333 1.16669 21.0877 1.16669 14Z" fill="#DCF5FF"/>
<path fill-rule="evenodd" clip-rule="evenodd" d="M18.3249 9.67504C18.7805 10.1307 18.7805 10.8693 18.3249 11.325L11.3249 18.325C10.8693 18.7806 10.1306 18.7806 9.67502 18.325C9.21941 17.8693 9.21941 17.1307 9.67502 16.675L16.675 9.67504C17.1306 9.21943 17.8693 9.21943 18.3249 9.67504Z" fill="#DCF5FF"/>
<path fill-rule="evenodd" clip-rule="evenodd" d="M9.67502 9.67504C10.1306 9.21943 10.8693 9.21943 11.3249 9.67504L18.3249 16.675C18.7805 17.1307 18.7805 17.8693 18.3249 18.325C17.8693 18.7806 17.1306 18.7806 16.675 18.325L9.67502 11.325C9.21941 10.8693 9.21941 10.1307 9.67502 9.67504Z" fill="#DCF5FF"/>
</svg>
